<svg xmlns="http://www.w3.org/2000/svg" viewBox="0 0 137 31"><style>.cls-1{fill:#fff}.cls-2{fill:#125491}</style><path class="cls-2" d="M103.6,10.14h3.2v1.53h0a6.56,6.56,0,0,1,4.83-2,6.63,6.63,0,0,1,5.07,2.26A7.68,7.68,0,0,1,118.46,15a11.29,11.29,0,0,0-3.84-.15,5,5,0,0,0-.53-.71,4.1,4.1,0,0,0-6,0,4.38,4.38,0,0,0-1.1,2.16l-.33.07L103.6,17v-6.9Zm15.17,6.68-.44-.15a8,8,0,0,0-3.11-.24,6,6,0,0,1,.08,1,4.58,4.58,0,0,1-1.22,3.24,4.09,4.09,0,0,1-6,0A4.52,4.52,0,0,1,106.9,18c-1.11.26-2.22.51-3.3.74v10.7h3.48V23.37h0a6.74,6.74,0,0,0,4.54,1.72,6.66,6.66,0,0,0,5.08-2.25,7.72,7.72,0,0,0,2.09-5.45c0-.19,0-.38,0-.57ZM128,27.33a4.33,4.33,0,0,0,3.34-1.39,4.88,4.88,0,0,0,1.26-3.07h0a6.8,6.8,0,0,1-5.07,2.22,6.62,6.62,0,0,1-5-2.25,7.72,7.72,0,0,1-2.09-5.45v-.17c.58.11,1.16.2,1.7.29l1.81.3a4.54,4.54,0,0,0,1.19,2.82,3.92,3.92,0,0,0,3,1.31,4,4,0,0,0,3-1.31,4.55,4.55,0,0,0,.89-1.41c.59-.22,1.17-.45,1.73-.68a16.18,16.18,0,0,1,2.08-.76v4.11a8.87,8.87,0,0,1-2.17,6.25,7.47,7.47,0,0,1-5.76,2.36,8,8,0,0,1-4.56-1.3,6.34,6.34,0,0,1-2.61-3.49h4A2.69,2.69,0,0,0,126,26.89a4.46,4.46,0,0,0,2,.44Zm-7.41-11.76c.59.11,1.2.21,1.77.3s1.18.19,1.66.3a4.52,4.52,0,0,1,1.08-2.05,4.1,4.1,0,0,1,6,0,4.58,4.58,0,0,1,1.21,3.2l.78-.31a13.56,13.56,0,0,1,2.71-.92V10.14h-3.36v1.62h0a6.46,6.46,0,0,0-4.9-2.1,6.62,6.62,0,0,0-5.06,2.26A7.62,7.62,0,0,0,120.62,15.57Z"/><path class="cls-2" d="M38.6,24.61V18.84a9.27,9.27,0,0,1,3.47-1.69v7.46H38.6Zm0-7.77a9.75,9.75,0,0,1,3.6-1.45,4.29,4.29,0,0,1,.57-1.53,2.38,2.38,0,0,1,2.1-1,2.43,2.43,0,0,1,2.12,1A4.24,4.24,0,0,1,47.68,16l.76.22c.87.24,1.77.5,2.76.71a5.49,5.49,0,0,1,.71-3.06,2.44,2.44,0,0,1,2.15-1,2.4,2.4,0,0,1,2.06.92,4.24,4.24,0,0,1,.71,2.68v.85a21.45,21.45,0,0,0,3.48-.63v-.79a6.34,6.34,0,0,0-1.56-4.52,5.51,5.51,0,0,0-4.22-1.67,5.71,5.71,0,0,0-4.39,1.83l-.28.31h0l-.25-.31a5.12,5.12,0,0,0-4-1.83,5,5,0,0,0-3.77,1.68h0v-1.2H38.6v6.7Zm21.71,1.52v6.25H56.83V19a22,22,0,0,0,3.48-.59Zm-9.11.26v6H47.72V17.72l.27.08c1,.29,2,.59,3.21.82ZM70,25.09a7.68,7.68,0,0,1-7.69-7.33c.55-.18,1.11-.38,1.69-.61a5.8,5.8,0,0,1,1.83-.44c0,.22,0,.44,0,.68A4.59,4.59,0,0,0,67,20.62a4.11,4.11,0,0,0,6,0,4.06,4.06,0,0,0,.42-.53A11.35,11.35,0,0,0,77.3,20a7.52,7.52,0,0,1-1.81,2.82A7.41,7.41,0,0,1,70,25.09ZM62.46,16l1-.36a7.07,7.07,0,0,1,3-.61,5.05,5.05,0,0,1,.62-.86,4.09,4.09,0,0,1,6,0,4.66,4.66,0,0,1,1.21,3.25,5.65,5.65,0,0,1-.11,1.11,10.46,10.46,0,0,0,3.56-.28,7.56,7.56,0,0,0,0-.83,7.47,7.47,0,0,0-2.25-5.47,7.71,7.71,0,0,0-13,4.05Zm17.79-5.83h3.48v5.4c-.67.3-1.32.64-2,1-.49.25-1,.51-1.49.74V10.14Zm3.48,7.23v6.38A5.94,5.94,0,0,1,82.34,28a5.16,5.16,0,0,1-3.53,1.43h0V26h0a1.26,1.26,0,0,0,1.13-.47,3.53,3.53,0,0,0,.31-1.79h0V19.09c.78-.34,1.52-.72,2.25-1.1l1.23-.62Zm9.32,7.72A6.69,6.69,0,0,1,88,22.84a7.7,7.7,0,0,1-2.1-5.45,8,8,0,0,1,0-.86,7.29,7.29,0,0,1,3.53-.12,5.19,5.19,0,0,0-.08,1,4.53,4.53,0,0,0,1.22,3.24,4,4,0,0,0,3,1.31,4,4,0,0,0,3-1.31,4.25,4.25,0,0,0,.76-1.1,20.75,20.75,0,0,0,3.74-.34v5.42H98V23h0a6.73,6.73,0,0,1-4.92,2.07Zm-6.76-10.4a8.37,8.37,0,0,1,3.77.11,4.72,4.72,0,0,1,.52-.68,4.19,4.19,0,0,1,6.09,0,4.91,4.91,0,0,1,1.19,3.78,21.72,21.72,0,0,0,3.3-.38V10.14H98v1.6h0a6.58,6.58,0,0,0-4.91-2.08A6.69,6.69,0,0,0,88,11.92,7.73,7.73,0,0,0,86.29,14.69Z"/><ellipse class="cls-2" cx="81.87" cy="3.9085" rx="3.5285" ry="3.5185"/><path class="cls-2" d="M0,13.82H4.76V7.47A1.69,1.69,0,0,1,6.27,5.66h6.66V.89H5.75C3.45,1.25.55,2.58,0,6.26Z"/><path class="cls-2" d="M28.6,13.82H23.84V7.47a1.69,1.69,0,0,0-1.51-1.81H15.67V.89h7.19c2.29.36,5.19,1.69,5.74,5.37Z"/><path class="cls-2" d="M28.64,16.47H23.87v6.36a1.69,1.69,0,0,1-1.51,1.81H15.71V29.4h7.18c2.3-.35,5.19-1.69,5.75-5.37Z"/><path class="cls-2" d="M6.66,20l-2.9-2.8L16,13.77,12.42,25.65,9.73,23.14c-2.89,2.63-3.49,3.45-6.38,6.08C2,30.29-.94,27.41.45,26Z"/></svg>