<svg xmlns="http://www.w3.org/2000/svg" viewBox="0 0 748.8 101.6"><path fill="#003768" stroke-width="1.333" d="m275.2 25.38h13.17v15.7c-1.141 0.6572-2.218 1.26-3.235 1.79-1.02 0.5345-2.037 0.9931-3.033 1.378-1.005 0.3759-2.053 0.6612-3.141 0.8518-1.088 0.188-2.287 0.2853-3.602 0.2853-1.972 0-3.806-0.2319-5.496-0.7012-1.692-0.4679-3.158-1.166-4.407-2.095-1.242-0.9384-2.218-2.119-2.929-3.554-0.7052-1.434-1.065-3.137-1.065-5.104v-13.38c0-1.873 0.3719-3.516 1.118-4.955 0.7398-1.43 1.742-2.626 3.003-3.575 1.264-0.9504 2.733-1.68 4.41-2.177 1.672-0.5025 3.45-0.7518 5.315-0.7518 2.311 0 4.475 0.3452 6.478 1.036 2.006 0.6892 3.832 1.813 5.495 3.368l-2.899 4.668c-1.285-1.001-2.718-1.818-4.303-2.438-1.597-0.6212-3.182-0.9358-4.771-0.9358-0.9718 0-1.905 0.124-2.802 0.3626-0.8998 0.2453-1.685 0.6092-2.359 1.09-0.6705 0.4825-1.217 1.092-1.628 1.817-0.4212 0.7225-0.6225 1.553-0.6225 2.49v13.38c0 1.034 0.1973 1.914 0.5932 2.639 0.4012 0.7265 0.9371 1.324 1.612 1.79 0.6798 0.4652 1.472 0.8065 2.37 1.009 0.9038 0.2053 1.872 0.3119 2.914 0.3119 1.285 0 2.401-0.08265 3.358-0.2586 0.9491-0.1706 2.02-0.5839 3.202-1.244v-7.621h-6.744zm31.59-15.73c1.972 0 3.774 0.2239 5.419 0.6718 1.637 0.4519 3.047 1.142 4.223 2.078 1.177 0.9318 2.091 2.115 2.747 3.551 0.6545 1.433 0.9864 3.131 0.9864 5.105v12.44c0 1.97-0.3626 3.672-1.086 5.111-0.7252 1.429-1.724 2.614-2.983 3.546-1.261 0.9371-2.743 1.626-4.435 2.075-1.69 0.4466-3.506 0.6745-5.444 0.6745h-11.09v-35.26zm6.949 11.39c0-0.9931-0.1773-1.858-0.5199-2.583-0.3412-0.7225-0.8265-1.316-1.442-1.78-0.6212-0.4692-1.357-0.8078-2.222-1.013-0.8571-0.2053-1.789-0.3093-2.789-0.3093h-5.315v23.85h4.748c0.9971 0 1.953-0.09864 2.862-0.3079 0.9184-0.2053 1.713-0.5412 2.406-1.008 0.6852-0.4666 1.24-1.064 1.65-1.786 0.4132-0.7265 0.6212-1.601 0.6212-2.638zm28.78-11.66 11.3 35.51h-6.736l-2.441-8.347h-12.28l-2.487 8.347h-6.84l11.66-35.51zm0.5225 21.98-4.508-15.29-4.567 15.29zm64.53-7.318c1.8 0.4466 3.406 0.9664 4.821 1.558 1.417 0.5839 2.619 1.294 3.606 2.126 0.9824 0.8265 1.734 1.829 2.253 3.001 0.5172 1.178 0.7758 2.591 0.7758 4.256 0 1.761-0.3412 3.291-1.034 4.588-0.6892 1.293-1.624 2.365-2.801 3.214-1.174 0.8478-2.546 1.47-4.122 1.866-1.573 0.3946-3.221 0.5945-4.949 0.5945-1.385 0-2.749-0.1493-4.098-0.4412-1.346-0.2933-2.619-0.7185-3.811-1.269-1.188-0.5505-2.294-1.237-3.321-2.046-1.014-0.8131-1.869-1.74-2.562-2.775l4.2-3.994c0.4106 0.6238 0.9731 1.217 1.682 1.79 0.7105 0.5692 1.478 1.08 2.309 1.529s1.692 0.8145 2.59 1.086c0.9011 0.2759 1.75 0.4159 2.543 0.4159 0.8318 0 1.662-0.07465 2.487-0.2319 0.8305-0.16 1.574-0.4039 2.231-0.7558 0.6558-0.3412 1.194-0.8065 1.606-1.397 0.4132-0.5865 0.6212-1.313 0.6212-2.174 0-0.9038-0.2853-1.642-0.8558-2.234-0.5705-0.5825-1.289-1.076-2.15-1.474-0.8651-0.3959-1.802-0.7252-2.802-0.9851-0.9998-0.2613-1.932-0.5105-2.797-0.7518-1.624-0.5172-3.082-1.07-4.379-1.662-1.296-0.5865-2.401-1.282-3.295-2.094-0.8984-0.8118-1.581-1.773-2.047-2.878-0.4679-1.109-0.6972-2.425-0.6972-3.94 0-1.729 0.3332-3.227 1.01-4.484 0.6665-1.264 1.585-2.293 2.741-3.085 1.164-0.7945 2.507-1.384 4.05-1.764 1.536-0.3772 3.189-0.5732 4.951-0.5732 2.49 0 4.679 0.4186 6.582 1.246 1.904 0.8318 3.579 1.829 5.027 3.003l-3.576 4.775c-0.4119-0.3826-0.9304-0.7638-1.552-1.144-0.6252-0.3812-1.3-0.7318-2.026-1.06-0.7238-0.3293-1.478-0.5972-2.254-0.8051-0.7758-0.2079-1.513-0.3106-2.201-0.3106-0.7958 0-1.572 0.06932-2.333 0.2093-0.7651 0.136-1.44 0.3706-2.025 0.6985-0.5892 0.3253-1.057 0.7585-1.426 1.294-0.3599 0.5372-0.5425 1.201-0.5425 1.998 0 0.7931 0.2346 1.46 0.7012 1.994 0.4652 0.5359 1.057 1.004 1.785 1.401 0.7292 0.3986 1.542 0.7238 2.443 0.9851 0.8944 0.2586 1.776 0.4905 2.639 0.6985m79.05-14.4h6.428v23.95c0 1.969-0.3639 3.692-1.093 5.159-0.7185 1.473-1.716 2.698-2.975 3.682-1.266 0.9851-2.739 1.725-4.432 2.227-1.694 0.4999-3.511 0.7531-5.447 0.7531-1.97 0-3.811-0.2533-5.521-0.7531-1.71-0.5025-3.198-1.242-4.46-2.227-1.26-0.9838-2.254-2.209-2.978-3.682-0.7238-1.466-1.086-3.19-1.086-5.159v-23.95h6.429v23.95c0 1.041 0.1973 1.945 0.5879 2.721 0.4012 0.7758 0.9424 1.416 1.612 1.924 0.6745 0.4999 1.476 0.8691 2.409 1.113 0.9371 0.2373 1.921 0.3626 2.957 0.3626 1.037 0 2.01-0.1253 2.934-0.3626 0.9064-0.2439 1.714-0.6252 2.409-1.14 0.6878-0.5225 1.237-1.16 1.63-1.924 0.4012-0.7585 0.5985-1.653 0.5985-2.694zm35.86 0h5.704v35.26h-8.919l-14.3-27.85v27.85h-5.701v-35.26h8.399l14.82 28.57zm14.13 0h6.43v35.26h-6.43zm18.53 0 8.862 27.69 9.074-27.69h6.64l-11.82 35.26h-7.829l-11.56-35.26zm36.66 19.73v9.742h14.48v5.707h-20.9v-35.26h19.8v5.707h-13.37v8.659h11.25v5.445zm43.19-2.399c-1.174 1.348-2.799 2.314-4.876 2.902l8.297 14.98h-7.152l-7.834-14.3h-4.459v14.3h-6.426v-35.26h13.48c3.247 0 5.848 0.7558 7.798 2.257 1.953 1.506 2.929 3.882 2.929 7.132v2.694c0 2.177-0.5825 3.94-1.757 5.288m-16.02-2.129h7.054c1.102 0 2.102-0.2533 2.982-0.7745 0.8798-0.5172 1.314-1.329 1.314-2.438v-2.593c0-1.241-0.4106-2.177-1.242-2.797-0.8251-0.6212-1.864-0.9331-3.106-0.9331h-7.002zm38.42-0.8011c1.802 0.4466 3.414 0.9664 4.827 1.558 1.417 0.5839 2.619 1.294 3.6 2.126 0.9878 0.8265 1.74 1.829 2.258 3.001 0.5145 1.178 0.7758 2.591 0.7758 4.256 0 1.761-0.3466 3.291-1.04 4.588-0.6838 1.293-1.617 2.365-2.801 3.214-1.169 0.8478-2.546 1.47-4.116 1.866-1.576 0.3946-3.223 0.5945-4.949 0.5945-1.385 0-2.754-0.1493-4.095-0.4412-1.349-0.2933-2.625-0.7185-3.815-1.269-1.186-0.5505-2.298-1.237-3.319-2.046-1.017-0.8131-1.874-1.74-2.565-2.775l4.203-3.994c0.4106 0.6238 0.9758 1.217 1.681 1.79 0.7118 0.5692 1.48 1.08 2.31 1.529 0.8331 0.4492 1.692 0.8145 2.59 1.086 0.8984 0.2759 1.745 0.4159 2.541 0.4159 0.8331 0 1.66-0.07465 2.49-0.2319 0.8305-0.16 1.569-0.4039 2.229-0.7558 0.6558-0.3412 1.192-0.8065 1.604-1.397 0.4186-0.5865 0.6265-1.313 0.6265-2.174 0-0.9038-0.2879-1.642-0.8531-2.234-0.5759-0.5825-1.292-1.076-2.155-1.474-0.8651-0.3959-1.8-0.7252-2.799-0.9851-0.9998-0.2613-1.937-0.5105-2.797-0.7518-1.629-0.5172-3.082-1.07-4.384-1.662-1.298-0.5865-2.395-1.282-3.294-2.094-0.8971-0.8118-1.58-1.773-2.049-2.878-0.4599-1.109-0.6945-2.425-0.6945-3.94 0-1.729 0.3359-3.227 1.008-4.484 0.6718-1.264 1.59-2.293 2.749-3.085 1.156-0.7945 2.505-1.384 4.046-1.764 1.537-0.3772 3.19-0.5732 4.947-0.5732 2.49 0 4.687 0.4186 6.588 1.246 1.898 0.8318 3.574 1.829 5.024 3.003l-3.574 4.775c-0.4119-0.3826-0.9304-0.7638-1.557-1.144-0.6225-0.3812-1.294-0.7318-2.026-1.06-0.7238-0.3293-1.473-0.5972-2.246-0.8051-0.7758-0.2079-1.516-0.3106-2.209-0.3106-0.7905 0-1.569 0.06932-2.327 0.2093-0.7652 0.136-1.434 0.3706-2.025 0.6985-0.5892 0.3253-1.057 0.7585-1.425 1.294-0.3586 0.5372-0.5465 1.201-0.5465 1.998 0 0.7931 0.2319 1.46 0.7012 1.994 0.4626 0.5359 1.061 1.004 1.788 1.401 0.7238 0.3986 1.542 0.7238 2.439 0.9851 0.8931 0.2586 1.774 0.4905 2.638 0.6985m17.33-14.4h6.428v35.26h-6.428zm11.86 5.599v-5.704h27.38v5.752h-10.52v29.5h-6.432v-29.5zm42.92 15.6-12.34-21.31h7.358l8.19 15.72 8.35-15.72h7.411l-12.54 21.37v13.89h-6.43zm-448.2 30.93c1.662 0.5199 3.129 1.27 4.407 2.254 1.28 0.9838 2.309 2.177 3.085 3.578 0.7811 1.4 1.166 2.998 1.166 4.796v13.44c0 1.862-0.3692 3.518-1.116 4.945-0.7438 1.436-1.741 2.639-3.006 3.602-1.26 0.9744-2.727 1.7-4.403 2.179-1.68 0.4865-3.454 0.7292-5.319 0.7292h-0.7731c-1.905 0-3.699-0.2426-5.392-0.7292-1.696-0.4799-3.174-1.2-4.436-2.151-1.261-0.9464-2.261-2.142-3.007-3.571-0.7411-1.44-1.114-3.105-1.114-5.004v-13.44c0-1.832 0.3826-3.45 1.146-4.847 0.7558-1.398 1.78-2.591 3.055-3.578 1.278-0.9824 2.757-1.73 4.431-2.23 1.68-0.4999 3.434-0.7558 5.26-0.7558h0.8305c1.798 0 3.527 0.2626 5.185 0.7825m2.23 10.68c0-0.9358-0.2186-1.758-0.6465-2.465-0.4346-0.7118-0.9944-1.309-1.685-1.79-0.6918-0.4839-1.482-0.8598-2.358-1.114-0.8851-0.2599-1.789-0.3906-2.726-0.3906h-0.8305c-0.9304 0-1.848 0.1226-2.745 0.3666-0.8971 0.2413-1.704 0.6065-2.409 1.088-0.7078 0.4825-1.272 1.077-1.686 1.785-0.4159 0.7105-0.6212 1.529-0.6212 2.465v13.44c0 0.9998 0.2053 1.862 0.6212 2.585 0.4146 0.7292 0.9664 1.326 1.66 1.796 0.6865 0.4639 1.484 0.8105 2.385 1.036 0.8984 0.2253 1.845 0.3359 2.853 0.3359h0.7731c0.9718 0 1.905-0.1106 2.803-0.3359 0.8958-0.2253 1.681-0.5759 2.357-1.064 0.6745-0.4865 1.218-1.088 1.634-1.816 0.4106-0.7225 0.6212-1.573 0.6212-2.537zm32.96-5.219h-13.37v8.864h11.25v5.443h-11.25v15.24h-6.429v-35.24h19.8zm12.93 0v-5.701h27.38v5.757h-10.52v29.49h-6.434v-29.49zm39.32 14v9.75h14.46v5.699h-20.9v-35.26h19.81v5.704h-13.37v8.659h11.25v5.441zm33.32-14.53c-0.9344 0-1.82 0.1306-2.669 0.3906-0.8518 0.2546-1.59 0.6318-2.229 1.114-0.6398 0.4812-1.142 1.078-1.508 1.79-0.3612 0.7065-0.5412 1.528-0.5412 2.465v13.38c0 1.998 0.6638 3.46 1.997 4.378 1.328 0.9158 2.997 1.369 5.001 1.369 1.76 0 3.395-0.2346 4.9-0.7238 1.505-0.4852 2.843-1.245 4.019-2.278l2.797 4.717c-1.762 1.556-3.582 2.609-5.467 3.161-1.885 0.5492-3.968 0.8305-6.249 0.8305-1.898 0-3.674-0.2426-5.316-0.7252-1.644-0.4825-3.051-1.204-4.247-2.149-1.192-0.9531-2.134-2.149-2.827-3.58-0.6972-1.434-1.041-3.102-1.041-4.999v-13.38c0-1.801 0.3559-3.41 1.068-4.825 0.7078-1.416 1.666-2.618 2.877-3.604 1.213-0.9838 2.627-1.74 4.248-2.254 1.625-0.5185 3.354-0.7798 5.187-0.7798 1.418 0 2.671 0.09864 3.759 0.2879 1.086 0.1933 2.075 0.4919 2.955 0.9051s1.71 0.9371 2.491 1.554c0.7758 0.6252 1.576 1.349 2.403 2.181l-3.52 4.354c-1.109-1.036-2.29-1.894-3.554-2.566-1.26-0.6718-2.773-1.012-4.535-1.012m38.39-5.199h6.425v35.26h-6.425v-14.26h-14.46v14.26h-6.425v-35.26h6.425v15.29h14.46zm37.19 0h5.701v35.26h-8.914l-14.32-27.85v27.85h-5.703v-35.26h8.397l14.82 28.57zm32.26 0.2666c1.658 0.5199 3.127 1.27 4.408 2.254s2.309 2.177 3.087 3.578c0.7731 1.4 1.164 2.998 1.164 4.796v13.44c0 1.862-0.3666 3.518-1.112 4.945-0.7465 1.436-1.744 2.639-3.01 3.602-1.26 0.9744-2.729 1.7-4.404 2.179-1.677 0.4865-3.452 0.7292-5.312 0.7292h-0.7838c-1.897 0-3.694-0.2426-5.387-0.7292-1.692-0.4799-3.174-1.2-4.434-2.151-1.262-0.9464-2.267-2.142-3.01-3.571-0.7412-1.44-1.112-3.105-1.112-5.004v-13.44c0-1.832 0.3786-3.45 1.141-4.847 0.7598-1.398 1.778-2.591 3.057-3.578 1.276-0.9824 2.765-1.73 4.431-2.23 1.677-0.4999 3.428-0.7558 5.267-0.7558h0.8305c1.792 0 3.523 0.2626 5.179 0.7825m2.229 10.68c0-0.9358-0.2133-1.758-0.6438-2.465-0.4346-0.7118-0.9944-1.309-1.689-1.79-0.6878-0.4839-1.474-0.8598-2.354-1.114-0.8851-0.2599-1.793-0.3906-2.721-0.3906h-0.8305c-0.9318 0-1.85 0.1226-2.749 0.3666-0.8984 0.2413-1.706 0.6065-2.411 1.088-0.7105 0.4825-1.27 1.077-1.682 1.785-0.4159 0.7105-0.6238 1.529-0.6238 2.465v13.44c0 0.9998 0.208 1.862 0.6238 2.585 0.4119 0.7292 0.9611 1.326 1.657 1.796 0.6918 0.4639 1.489 0.8105 2.382 1.036 0.8998 0.2253 1.85 0.3359 2.85 0.3359h0.7838c0.9611 0 1.898-0.1106 2.794-0.3359 0.9038-0.2253 1.685-0.5759 2.361-1.064 0.6772-0.4865 1.218-1.088 1.633-1.816 0.4119-0.7225 0.6198-1.573 0.6198-2.537zm19.63-10.95v29.55h15.72v5.699h-22.14v-35.26zm39.19 0.2666c1.658 0.5199 3.127 1.27 4.408 2.254s2.303 2.177 3.082 3.578c0.7785 1.4 1.164 2.998 1.164 4.796v13.44c0 1.862-0.3666 3.518-1.112 4.945-0.7411 1.436-1.744 2.639-3.01 3.602-1.254 0.9744-2.726 1.7-4.404 2.179-1.674 0.4865-3.447 0.7292-5.312 0.7292h-0.7785c-1.902 0-3.694-0.2426-5.389-0.7292-1.692-0.4799-3.171-1.2-4.436-2.151-1.26-0.9464-2.259-2.142-3.005-3.571-0.7385-1.44-1.117-3.105-1.117-5.004v-13.44c0-1.832 0.3879-3.45 1.146-4.847 0.7625-1.398 1.778-2.591 3.059-3.578 1.276-0.9824 2.757-1.73 4.431-2.23 1.677-0.4999 3.428-0.7558 5.259-0.7558h0.8305c1.792 0 3.523 0.2626 5.184 0.7825m2.229 10.68c0-0.9358-0.2133-1.758-0.6438-2.465-0.4399-0.7118-0.9998-1.309-1.692-1.79-0.6852-0.4839-1.474-0.8598-2.357-1.114-0.8798-0.2599-1.788-0.3906-2.721-0.3906h-0.8305c-0.9318 0-1.85 0.1226-2.746 0.3666-0.8958 0.2413-1.698 0.6065-2.409 1.088-0.7078 0.4825-1.265 1.077-1.685 1.785-0.4159 0.7105-0.6238 1.529-0.6238 2.465v13.44c0 0.9998 0.208 1.862 0.6238 2.585 0.4199 0.7292 0.9664 1.326 1.662 1.796 0.6865 0.4639 1.478 0.8105 2.382 1.036 0.8931 0.2253 1.848 0.3359 2.847 0.3359h0.7785c0.9664 0 1.898-0.1106 2.797-0.3359 0.9064-0.2253 1.688-0.5759 2.363-1.064 0.6718-0.4865 1.214-1.088 1.628-1.816 0.4172-0.7225 0.6252-1.573 0.6252-2.537zm26.03 4.779h13.17v15.7c-1.141 0.6585-2.218 1.253-3.239 1.789-1.017 0.5359-2.033 0.9944-3.033 1.377-0.9998 0.3772-2.049 0.6665-3.133 0.8558-1.09 0.188-2.289 0.2853-3.603 0.2853-1.97 0-3.808-0.2319-5.499-0.7012-1.692-0.4626-3.161-1.165-4.408-2.097-1.241-0.9331-2.221-2.118-2.931-3.55-0.6998-1.44-1.06-3.143-1.06-5.105v-13.38c0-1.873 0.3732-3.52 1.117-4.956 0.7398-1.434 1.745-2.626 3.005-3.58 1.262-0.9491 2.726-1.673 4.414-2.171 1.666-0.5052 3.439-0.7558 5.308-0.7558 2.314 0 4.476 0.3479 6.48 1.038 2.005 0.6932 3.832 1.814 5.495 3.368l-2.903 4.669c-1.281-1.002-2.71-1.817-4.302-2.438-1.588-0.6225-3.179-0.9344-4.769-0.9344-0.9704 0-1.904 0.1226-2.801 0.3639-0.8984 0.2439-1.682 0.6092-2.359 1.085-0.6718 0.4892-1.216 1.093-1.633 1.822-0.4159 0.7238-0.6185 1.552-0.6185 2.489v13.38c0 1.033 0.2 1.913 0.5958 2.642 0.3959 0.7212 0.9371 1.318 1.614 1.786 0.6745 0.4666 1.462 0.8078 2.371 1.008 0.8984 0.2079 1.869 0.3106 2.909 0.3106 1.286 0 2.402-0.08398 3.358-0.2586 0.9531-0.1706 2.021-0.5825 3.201-1.242v-7.619h-6.741zm28.39 5.599-12.34-21.31h7.365l8.189 15.72 8.347-15.72h7.411l-12.54 21.35v13.89h-6.438zm-183.3-37.99h8.75l-14.36-19.1 13.26-16.1h-8.438l-10.15 13.46h-2.037v-13.46h-6.42v35.22h6.42v-15.54h2.275zm-63.05-35.19h5.692v35.16h-8.894l-14.28-27.78v27.78h-5.689v-35.16h8.378l14.78 28.49zm-7.198-6.798h6.305l-4.871 8.553h-3.739l2.305-8.546zm-325.4 12.66-5.213 3.92 2.213 2.949 4.232-3.185h4.919l1.566-11.56-11.01-2-1.038 5.963 3.628 0.6332 0.4012-2.31 3.89 0.7052-0.6572 4.883zm131 3.599 4.238 3.185 2.213-2.949-5.219-3.92h-2.923l-0.6612-4.883 3.884-0.7052 0.4066 2.306 3.623-0.6292-1.038-5.963-11 2 1.568 11.56zm13.06-19.06v3.988l-5.801 1.053 0.6598 3.627 5.141-0.9304v12.56l-9.918 5.407-4.566-3.423-2.211 2.947 3.221 2.413-5.943 3.243-11.16-5.513-2.789-8.163h-4.556v-7h-79.99v7h-4.555l-2.787 8.163-11.16 5.513-5.941-3.243 3.219-2.413-2.209-2.947-4.568 3.423-9.918-5.407v-12.56l5.141 0.9304 0.6545-3.627-5.796-1.053v-3.988h-3.684v4.772l-16.72 12.52 2.135 2.855-4.13 3.086 2.211 2.953 4.15-3.107-2.133-2.851 14.49-10.85v4.28l-12.41 9.299 2.139 2.854-5.512 4.128 2.213 2.947 5.528-4.151-2.137-2.841 10.18-7.629v4.218l0.05465 0.03199-8.153 6.104 2.135 2.851-6.842 5.124 2.209 2.953 6.861-5.139-2.135-2.851 9.479-7.108 3.311 1.808-10.71 8.026 2.135 2.861-7.573 5.704v7.534l-12.69 9.518-0.02799-0.05199v-7.338l6.753-5.088v-5.925l-7.985-10.47-10.19 7.639v2.995l5.092 6.682 5.871-4.402-2.207-2.947-2.945 2.211-2.081-2.733 5.745-4.314 5.02 6.572v2.843l-6.765 5.088v10.43l3.011 3.936 6.522-4.889v12.08h-6.562l-5.807 8.209 10.49 21.14h18.97l0.012-3.711-4.452-9.012h-5.231l-2.046-4.136h11.72v-18.94l3.884-2.911 14.96 7.649v10.17l-3.556 5.027 3.392 6.822h5.213l2.658 5.363h-12.6l-6.474-13.04 3.189-4.51v-8.107h-7.006v3.687h3.319v3.251l-3.775 5.343 8.462 17.06h18.97l0.0067-3.711-4.455-9.012h-5.228l-1.394-2.806 2.962-4.194v-13.6l-15.36-7.849 6.25-4.692v4.574h21.94l5.257-1.534v23.03l39.99 15.36 40-15.36v-19.42l5.457 1.602 21.74-4.767v-3.488l6.252 4.692-15.36 7.849v13.6l2.962 4.194-1.394 2.806h-5.228l-4.452 9.012 7e-3 3.711h18.97l8.467-17.06-3.78-5.343v-3.251h3.319v-3.687h-7.006v8.107l3.189 4.51-6.469 13.04h-12.6l2.653-5.363h5.217l3.392-6.822-3.56-5.027v-10.17l14.96-7.649 3.892 2.911v18.94h11.72l-2.051 4.136h-5.223l-4.46 9.012 0.012 3.711h18.97l10.49-21.14-5.805-8.209h-6.561v-12.08l6.522 4.889 3.006-3.936v-10.43l-6.761-5.088v-2.843l5.016-6.572 5.751 4.314-2.082 2.733-2.949-2.211-2.206 2.947 5.877 4.402 5.089-6.682v-2.995l-10.19-7.639-7.985 10.47v5.925l6.757 5.088v7.338l-0.0293 0.05199-12.68-9.518v-7.534l-7.586-5.704 2.145-2.861-10.72-8.026 3.314-1.808 9.486 7.108-2.134 2.851 6.86 5.139 2.209-2.953-6.842-5.124 2.133-2.851-8.154-6.104 0.0533-0.03199v-4.218l10.18 7.629-2.135 2.841 5.533 4.151 2.21-2.947-5.511-4.128 2.135-2.854-12.41-9.299v-4.28l14.49 10.85-2.131 2.851 4.147 3.107 2.21-2.953-4.127-3.086 2.137-2.855-16.73-12.52v-4.772zm-119.8 44.43h5.535v-30.54h72.64v34.16h5.535l2.375 6.948 14.05-6.614v-13.19l12.84-6.994 10.86 8.147-2.145 2.847 7.305 5.499v7.531l6.88 5.157v14.85h-3.646v3.687h11.98l3.435 4.855-8.493 17.12h-12.59l2.641-5.363h5.231l5.704-11.49h-13.97v-17.12l-16.01-12 3.538-4.648-2.929-2.23-5.377 7.069v4.119l-17.94 3.928-5.587-1.641v-3.079h-3.682v23.81l-36.31 13.94-36.31-13.94v-27.43h-3.682v3.091l-5.781 1.692h-17.73v-4.482l-5.385-7.069-2.927 2.23 3.536 4.648-16.01 12v17.12h-13.98l5.708 11.49h5.227l2.649 5.363h-12.59l-8.495-17.12 3.434-4.855h11.98v-3.687h-3.64v-14.85l6.873-5.157v-7.531l7.301-5.499-2.145-2.847 10.87-8.147 12.84 6.994v13.61l14.22 2.066zm81.85-23.54h1.918l2.435 7.108 10.24 5.064v8.598l-10.5-7.889h-4.095zm-94.59 12.17 10.25-5.064 2.429-7.108h1.921v12.88h-4.091l-10.5 7.889zm94.59 4.387h2.866l11.55 8.678-8.035 3.778-1.894-5.547h-4.49zm-93.87 8.27 11.01-8.27h2.863v3.293h-4.482l-2.074 6.048zm-0.7198-0.104v-0.07065l0.05599 0.07598zm41.34-12.02c-0.3719-0.2853-0.8265-0.4252-1.368-0.4252h-3.783v4.895h3.783c0.4932 0 0.9371-0.1106 1.329-0.3266 0.3959-0.2146 0.5918-0.5719 0.5918-1.085v-1.824c0-0.5332-0.1866-0.9491-0.5532-1.234m-19.46-16.13v59.29l32.71 12.57 32.73-12.57v-59.29zm22.45 49.56c-0.5079 0.2906-0.9904 0.5559-1.44 0.7971-0.4519 0.2373-0.9038 0.4399-1.358 0.6038-0.4372 0.1733-0.9078 0.2999-1.392 0.3812-0.4786 0.08398-1.018 0.1266-1.604 0.1266-0.8798 0-1.692-0.1013-2.445-0.3039-0.7545-0.2106-1.412-0.5225-1.962-0.9331-0.5505-0.4199-0.9851-0.9491-1.3-1.585-0.3186-0.6385-0.4785-1.401-0.4785-2.271v-5.955c0-0.8318 0.1653-1.569 0.4999-2.201 0.3266-0.6425 0.7718-1.169 1.336-1.59 0.5612-0.4292 1.218-0.7465 1.968-0.9758 0.7385-0.2173 1.534-0.3332 2.358-0.3332 1.03 0 1.993 0.1546 2.887 0.4586 0.8918 0.3146 1.708 0.8118 2.442 1.501l-1.285 2.079c-0.5705-0.4492-1.209-0.8065-1.918-1.085-0.7105-0.2773-1.421-0.4146-2.126-0.4146-0.4306 0-0.8465 0.05065-1.242 0.1613-0.4012 0.1066-0.7491 0.2666-1.053 0.4812-0.2999 0.2146-0.5412 0.4879-0.7252 0.8118-0.184 0.3253-0.2733 0.6932-0.2733 1.106v5.955c0 0.4519 0.07998 0.8531 0.2639 1.177 0.1733 0.3239 0.4159 0.5852 0.7145 0.7918 0.2999 0.2106 0.6572 0.3652 1.054 0.4519 0.4052 0.09464 0.8358 0.1413 1.3 0.1413 0.5652 0 1.068-0.04399 1.493-0.1173 0.4226-0.07598 0.8984-0.2653 1.425-0.5532v-3.398h-2.275v-2.305h5.136zm0.4066-30.47c0 0.6505-0.1266 1.224-0.3772 1.706-0.2586 0.4959-0.5998 0.9091-1.029 1.242-0.4306 0.3279-0.9331 0.5745-1.501 0.7491-0.5679 0.168-1.176 0.2533-1.818 0.2533h-3.838v5.719h-2.861v-15.69h6.648c0.6932 0 1.333 0.08665 1.916 0.2613 0.5838 0.1813 1.086 0.4492 1.512 0.7998 0.4212 0.3519 0.7545 0.7918 0.9958 1.316 0.2373 0.5172 0.3532 1.13 0.3532 1.82zm11.01 34.26h-2.307v-40.75h2.307zm21.65-3.966-4.228-0.5319 0.5559 4.232h-4.076l0.5585-4.198-4.258 0.4972v-4.048l4.258 0.5692-0.5585-4.242h4.076l-0.5559 4.182 4.228-0.5092zm0-16.52-4.228-0.5319 0.5559 4.232h-4.076l0.5585-4.203-4.258 0.5025v-4.05l4.258 0.5705-0.5585-4.238h4.076l-0.5559 4.18 4.228-0.5132zm0.9464-16.2v3.392h-13.33v-3.398l-0.7012-5.451 3.291 2.219-0.8211 3.231h3.938l-1.237-3.231 2.198-3.672 2.195 3.672-1.241 3.231h3.935l-0.8158-3.227 3.29-2.223z"/></svg>
